{
  "accessors": [
    {
      "bufferView": 1,
      "componentType": 5126,
      "count": 65532,
      "max": [
        0.10246987640857697,
        0.00507690105587244,
        0.25747019052505493
      ],
      "min": [
        -0.10190925747156143,
        -0.10309259593486786,
        0.08047015219926834
      ],
      "type": "VEC3"
    },
    {
      "bufferView": 1,
      "byteOffset": 786384,
      "componentType": 5126,
      "count": 65532,
      "max": [
        1.0,
        1.0,
        1.0
      ],
      "min": [
        -1.0,
        -1.0,
        -1.0
      ],
      "type": "VEC3"
    },
    {
      "bufferView": 0,
      "componentType": 5125,
      "count": 189789,
      "type": "SCALAR"
    },
    {
      "bufferView": 1,
      "byteOffset": 1572768,
      "componentType": 5126,
      "count": 65532,
      "max": [
        0.09876736253499985,
        0.005030647851526737,
        0.1774701625108719
      ],
      "min": [
        -0.10903660207986832,
        -0.09494976699352264,
        0.10247016698122025
      ],
      "type": "VEC3"
    },
    {
      "bufferView": 1,
      "byteOffset": 2359152,
      "componentType": 5126,
      "count": 65532,
      "max": [
        1.0,
        1.0,
        1.0
      ],
      "min": [
        -1.0,
        -1.0,
        -1.0
      ],
      "type": "VEC3"
    },
    {
      "bufferView": 0,
      "byteOffset": 759156,
      "componentType": 5125,
      "count": 185034,
      "type": "SCALAR"
    },
    {
      "bufferView": 1,
      "byteOffset": 3145536,
      "componentType": 5126,
      "count": 65532,
      "max": [
        0.10617239773273468,
        0.1376747041940689,
        0.1342201679944992
      ],
      "min": [
        -0.11745984107255936,
        -0.1518567055463791,
        0.028470180928707123
      ],
      "type": "VEC3"
    },
    {
      "bufferView": 1,
      "byteOffset": 3931920,
      "componentType": 5126,
      "count": 65532,
      "max": [
        1.0,
        1.0,
        1.0
      ],
      "min": [
        -1.0,
        -1.0,
        -1.0
      ],
      "type": "VEC3"
    },
    {
      "bufferView": 0,
      "byteOffset": 1499292,
      "componentType": 5125,
      "count": 189390,
      "type": "SCALAR"
    },
    {
      "bufferView": 1,
      "byteOffset": 4718304,
      "componentType": 5126,
      "count": 65532,
      "max": [
        0.10654264688491821,
        0.1376747041940689,
        0.09247016161680222
      ],
      "min": [
        -0.11653421074151993,
        -0.1518567055463791,
        0.019470173865556717
      ],
      "type": "VEC3"
    },
    {
      "bufferView": 1,
      "byteOffset": 5504688,
      "componentType": 5126,
      "count": 65532,
      "max": [
        1.0,
        1.0,
        1.0
      ],
      "min": [
        -1.0,
        -1.0,
        -1.0
      ],
      "type": "VEC3"
    },
    {
      "bufferView": 0,
      "byteOffset": 2256852,
      "componentType": 5125,
      "count": 182055,
      "type": "SCALAR"
    },
    {
      "bufferView": 1,
      "byteOffset": 6291072,
      "componentType": 5126,
      "count": 65532,
      "max": [
        0.10358063131570816,
        0.12573809921741486,
        0.0769701823592186
      ],
      "min": [
        -0.11246145516633987,
        -0.15185676515102386,
        -0.010529829189181328
      ],
      "type": "VEC3"
    },
    {
      "bufferView": 1,
      "byteOffset": 7077456,
      "componentType": 5126,
      "count": 65532,
      "max": [
        1.0,
        1.0,
        1.0
      ],
      "min": [
        -1.0,
        -1.0,
        -1.0
      ],
      "type": "VEC3"
    },
    {
      "bufferView": 0,
      "byteOffset": 2985072,
      "componentType": 5125,
      "count": 181206,
      "type": "SCALAR"
    },
    {
      "bufferView": 1,
      "byteOffset": 7863840,
      "componentType": 5126,
      "count": 65532,
      "max": [
        0.08377213776111603,
        0.12000115215778351,
        0.058970171958208084
      ],
      "min": [
        -0.0669204369187355,
        -0.1518567055463791,
        -0.04252982884645462
      ],
      "type": "VEC3"
    },
    {
      "bufferView": 1,
      "byteOffset": 8650224,
      "componentType": 5126,
      "count": 65532,
      "max": [
        1.0,
        1.0,
        1.0
      ],
      "min": [
        -1.0,
        -1.0,
        -1.0
      ],
      "type": "VEC3"
    },
    {
      "bufferView": 0,
      "byteOffset": 3709896,
      "componentType": 5125,
      "count": 184500,
      "type": "SCALAR"
    },
    {
      "bufferView": 1,
      "byteOffset": 9436608,
      "componentType": 5126,
      "count": 65532,
      "max": [
        0.11135592311620712,
        0.11491192877292633,
        0.040470175445079803
      ],
      "min": [
        -0.10561178624629974,
        -0.1518567055463791,
        -0.0765298455953598
      ],
      "type": "VEC3"
    },
    {
      "bufferView": 1,
      "byteOffset": 10222992,
      "componentType": 5126,
      "count": 65532,
      "max": [
        1.0,
        1.0,
        1.0
      ],
      "min": [
        -1.0,
        -1.0,
        -1.0
      ],
      "type": "VEC3"
    },
    {
      "bufferView": 0,
      "byteOffset": 4447896,
      "componentType": 5125,
      "count": 185589,
      "type": "SCALAR"
    },
    {
      "bufferView": 1,
      "byteOffset": 11009376,
      "componentType": 5126,
      "count": 65534,
      "max": [
        0.10941209644079208,
        0.29220256209373474,
        0.021970178931951523
      ],
      "min": [
        -0.10505641996860504,
        -0.1518567055463791,
        -0.13602983951568604
      ],
      "type": "VEC3"
    },
    {
      "bufferView": 1,
      "byteOffset": 11795784,
      "componentType": 5126,
      "count": 65534,
      "max": [
        1.0,
        1.0,
        1.0
      ],
      "min": [
        -1.0,
        -1.0,
        -1.0
      ],
      "type": "VEC3"
    },
    {
      "bufferView": 0,
      "byteOffset": 5190252,
      "componentType": 5125,
      "count": 187236,
      "type": "SCALAR"
    },
    {
      "bufferView": 1,
      "byteOffset": 12582192,
      "componentType": 5126,
      "count": 65532,
      "max": [
        0.0768299251794815,
        0.31653842329978943,
        0.00906537938863039
      ],
      "min": [
        -0.06729070842266083,
        -0.2987044155597687,
        -0.30342060327529907
      ],
      "type": "VEC3"
    },
    {
      "bufferView": 1,
      "byteOffset": 13368576,
      "componentType": 5126,
      "count": 65532,
      "max": [
        1.0,
        1.0,
        1.0
      ],
      "min": [
        -1.0,
        -1.0,
        -1.0
      ],
      "type": "VEC3"
    },
    {
      "bufferView": 0,
      "byteOffset": 5939196,
      "componentType": 5125,
      "count": 195867,
      "type": "SCALAR"
    },
    {
      "bufferView": 1,
      "byteOffset": 14154960,
      "componentType": 5126,
      "count": 65532,
      "max": [
        0.06280817836523056,
        0.22284097969532013,
        0.15497659146785736
      ],
      "min": [
        -0.048001714050769806,
        0.13834096491336823,
        -0.3031039237976074
      ],
      "type": "VEC3"
    },
    {
      "bufferView": 1,
      "byteOffset": 14941344,
      "componentType": 5126,
      "count": 65532,
      "max": [
        1.0,
        1.0,
        1.0
      ],
      "min": [
        -1.0,
        -1.0,
        -1.0
      ],
      "type": "VEC3"
    },
    {
      "bufferView": 0,
      "byteOffset": 6722664,
      "componentType": 5125,
      "count": 170484,
      "type": "SCALAR"
    },
    {
      "bufferView": 1,
      "byteOffset": 15727728,
      "componentType": 5126,
      "count": 65532,
      "max": [
        0.07895474880933762,
        0.17534098029136658,
        0.21609625220298767
      ],
      "min": [
        -0.0764957070350647,
        0.08334097266197205,
        -0.2954244017601013
      ],
      "type": "VEC3"
    },
    {
      "bufferView": 1,
      "byteOffset": 16514112,
      "componentType": 5126,
      "count": 65532,
      "max": [
        1.0,
        1.0,
        1.0
      ],
      "min": [
        -1.0,
        -1.0,
        -1.0
      ],
      "type": "VEC3"
    },
    {
      "bufferView": 0,
      "byteOffset": 7404600,
      "componentType": 5125,
      "count": 173484,
      "type": "SCALAR"
    },
    {
      "bufferView": 1,
      "byteOffset": 17300496,
      "componentType": 5126,
      "count": 65532,
      "max": [
        0.08022114634513855,
        0.1435910165309906,
        0.22052979469299316
      ],
      "min": [
        -0.08211534470319748,
        0.053340982645750046,
        -0.27642345428466797
      ],
      "type": "VEC3"
    },
    {
      "bufferView": 1,
      "byteOffset": 18086880,
      "componentType": 5126,
      "count": 65532,
      "max": [
        1.0,
        1.0,
        1.0
      ],
      "min": [
        -1.0,
        -1.0,
        -1.0
      ],
      "type": "VEC3"
    },
    {
      "bufferView": 0,
      "byteOffset": 8098536,
      "componentType": 5125,
      "count": 174711,
      "type": "SCALAR"
    },
    {
      "bufferView": 1,
      "byteOffset": 18873264,
      "componentType": 5126,
      "count": 65532,
      "max": [
        0.08338713645935059,
        0.11834098398685455,
        0.23858067393302917
      ],
      "min": [
        -0.08314427733421326,
        0.05184096843004227,
        0.07736974209547043
      ],
      "type": "VEC3"
    },
    {
      "bufferView": 1,
      "byteOffset": 19659648,
      "componentType": 5126,
      "count": 65532,
      "max": [
        1.0,
        1.0,
        1.0
      ],
      "min": [
        -1.0,
        -1.0,
        -1.0
      ],
      "type": "VEC3"
    },
    {
      "bufferView": 0,
      "byteOffset": 8797380,
      "componentType": 5125,
      "count": 173424,
      "type": "SCALAR"
    },
    {
      "bufferView": 1,
      "byteOffset": 20446032,
      "componentType": 5126,
      "count": 65532,
      "max": [
        0.08299139142036438,
        0.08934096246957779,
        0.2548897862434387
      ],
      "min": [
        -0.08251109719276428,
        0.014840974472463131,
        0.07738953083753586
      ],
      "type": "VEC3"
    },
    {
      "bufferView": 1,
      "byteOffset": 21232416,
      "componentType": 5126,
      "count": 65532,
      "max": [
        1.0,
        1.0,
        1.0
      ],
      "min": [
        -1.0,
        -1.0,
        -1.0
      ],
      "type": "VEC3"
    },
    {
      "bufferView": 0,
      "byteOffset": 9491076,
      "componentType": 5125,
      "count": 175716,
      "type": "SCALAR"
    },
    {
      "bufferView": 1,
      "byteOffset": 22018800,
      "componentType": 5126,
      "count": 65532,
      "max": [
        0.08164584636688232,
        0.05384097993373871,
        0.2560773491859436
      ],
      "min": [
        -0.07578334212303162,
        -0.01965903490781784,
        0.07738953828811646
      ],
      "type": "VEC3"
    },
    {
      "bufferView": 1,
      "byteOffset": 22805184,
      "componentType": 5126,
      "count": 65532,
      "max": [
        1.0,
        1.0,
        1.0
      ],
      "min": [
        -1.0,
        -1.0,
        -1.0
      ],
      "type": "VEC3"
    },
    {
      "bufferView": 0,
      "byteOffset": 10193940,
      "componentType": 5125,
      "count": 168843,
      "type": "SCALAR"
    },
    {
      "bufferView": 1,
      "byteOffset": 23591568,
      "componentType": 5126,
      "count": 65532,
      "max": [
        0.08053772896528244,
        0.026340972632169724,
        0.25647321343421936
      ],
      "min": [
        -0.08203621208667755,
        -0.07665905356407166,
        0.07733017206192017
      ],
      "type": "VEC3"
    },
    {
      "bufferView": 1,
      "byteOffset": 24377952,
      "componentType": 5126,
      "count": 65532,
      "max": [
        1.0,
        1.0,
        1.0
      ],
      "min": [
        -1.0,
        -1.0,
        -1.0
      ],
      "type": "VEC3"
    },
    {
      "bufferView": 0,
      "byteOffset": 10869312,
      "componentType": 5125,
      "count": 175272,
      "type": "SCALAR"
    },
    {
      "bufferView": 1,
      "byteOffset": 25164336,
      "componentType": 5126,
      "count": 65532,
      "max": [
        0.1031746119260788,
        -0.011159028857946396,
        0.30967578291893005
      ],
      "min": [
        -0.11531875282526016,
        -0.11865905672311783,
        -0.23960918188095093
      ],
      "type": "VEC3"
    },
    {
      "bufferView": 1,
      "byteOffset": 25950720,
      "componentType": 5126,
      "count": 65532,
      "max": [
        1.0,
        1.0,
        1.0
      ],
      "min": [
        -1.0,
        -1.0,
        -1.0
      ],
      "type": "VEC3"
    },
    {
      "bufferView": 0,
      "byteOffset": 11570400,
      "componentType": 5125,
      "count": 178683,
      "type": "SCALAR"
    },
    {
      "bufferView": 1,
      "byteOffset": 26737104,
      "componentType": 5126,
      "count": 65532,
      "max": [
        0.10491590946912766,
        -0.07865902781486511,
        0.3337436020374298
      ],
      "min": [
        -0.11531875282526016,
        -0.15265904366970062,
        -0.27571094036102295
      ],
      "type": "VEC3"
    },
    {
      "bufferView": 1,
      "byteOffset": 27523488,
      "componentType": 5126,
      "count": 65532,
      "max": [
        1.0,
        1.0,
        1.0
      ],
      "min": [
        -1.0,
        -1.0,
        -1.0
      ],
      "type": "VEC3"
    },
    {
      "bufferView": 0,
      "byteOffset": 12285132,
      "componentType": 5125,
      "count": 181926,
      "type": "SCALAR"
    },
    {
      "bufferView": 1,
      "byteOffset": 28309872,
      "componentType": 5126,
      "count": 65532,
      "max": [
        0.10966489464044571,
        -0.08965902775526047,
        0.32566821575164795
      ],
      "min": [
        -0.11270678788423538,
        -0.3016590476036072,
        -0.31228768825531006
      ],
      "type": "VEC3"
    },
    {
      "bufferView": 1,
      "byteOffset": 29096256,
      "componentType": 5126,
      "count": 65532,
      "max": [
        1.0,
        1.0,
        1.0
      ],
      "min": [
        -1.0,
        -1.0,
        -1.0
      ],
      "type": "VEC3"
    },
    {
      "bufferView": 0,
      "byteOffset": 13012836,
      "componentType": 5125,
      "count": 204588,
      "type": "SCALAR"
    },
    {
      "bufferView": 1,
      "byteOffset": 29882640,
      "componentType": 5126,
      "count": 65532,
      "max": [
        0.10966488718986511,
        -0.1816590428352356,
        0.3092007637023926
      ],
      "min": [
        -0.101981982588768,
        -0.2806590497493744,
        -0.31292104721069336
      ],
      "type": "VEC3"
    },
    {
      "bufferView": 1,
      "byteOffset": 30669024,
      "componentType": 5126,
      "count": 65532,
      "max": [
        1.0,
        1.0,
        1.0
      ],
      "min": [
        -1.0,
        -1.0,
        -1.0
      ],
      "type": "VEC3"
    },
    {
      "bufferView": 0,
      "byteOffset": 13831188,
      "componentType": 5125,
      "count": 172809,
      "type": "SCALAR"
    },
    {
      "bufferView": 1,
      "byteOffset": 31455408,
      "componentType": 5126,
      "count": 65534,
      "max": [
        0.10752783715724945,
        -0.2011590451002121,
        0.1206166222691536
      ],
      "min": [
        -0.1080765351653099,
        -0.34465906023979187,
        -0.31292104721069336
      ],
      "type": "VEC3"
    },
    {
      "bufferView": 1,
      "byteOffset": 32241816,
      "componentType": 5126,
      "count": 65534,
      "max": [
        1.0,
        1.0,
        1.0
      ],
      "min": [
        -1.0,
        -1.0,
        -1.0
      ],
      "type": "VEC3"
    },
    {
      "bufferView": 0,
      "byteOffset": 14522424,
      "componentType": 5125,
      "count": 178638,
      "type": "SCALAR"
    },
    {
      "bufferView": 1,
      "byteOffset": 33028224,
      "componentType": 5126,
      "count": 65532,
      "max": [
        0.022283392027020454,
        -0.2271590530872345,
        0.0037609441205859184
      ],
      "min": [
        -0.01222598273307085,
        -0.37515905499458313,
        -0.31022924184799194
      ],
      "type": "VEC3"
    },
    {
      "bufferView": 1,
      "byteOffset": 33814608,
      "componentType": 5126,
      "count": 65532,
      "max": [
        1.0,
        1.0,
        1.0
      ],
      "min": [
        -1.0,
        -1.0,
        -1.0
      ],
      "type": "VEC3"
    },
    {
      "bufferView": 0,
      "byteOffset": 15236976,
      "componentType": 5125,
      "count": 172017,
      "type": "SCALAR"
    },
    {
      "bufferView": 1,
      "byteOffset": 34600992,
      "componentType": 5126,
      "count": 65532,
      "max": [
        0.11061469465494156,
        -0.09765903651714325,
        0.33326858282089233
      ],
      "min": [
        -0.1080765351653099,
        -0.24965906143188477,
        -0.31292104721069336
      ],
      "type": "VEC3"
    },
    {
      "bufferView": 1,
      "byteOffset": 35387376,
      "componentType": 5126,
      "count": 65532,
      "max": [
        1.0,
        1.0,
        1.0
      ],
      "min": [
        -1.0,
        -1.0,
        -1.0
      ],
      "type": "VEC3"
    },
    {
      "bufferView": 0,
      "byteOffset": 15925044,
      "componentType": 5125,
      "count": 168063,
      "type": "SCALAR"
    },
    {
      "bufferView": 1,
      "byteOffset": 36173760,
      "componentType": 5126,
      "count": 65532,
      "max": [
        0.11108959466218948,
        -0.09915903210639954,
        0.3338227868080139
      ],
      "min": [
        -0.10522712767124176,
        -0.17165906727313995,
        -0.300412118434906
      ],
      "type": "VEC3"
    },
    {
      "bufferView": 1,
      "byteOffset": 36960144,
      "componentType": 5126,
      "count": 65532,
      "max": [
        1.0,
        1.0,
        1.0
      ],
      "min": [
        -1.0,
        -1.0,
        -1.0
      ],
      "type": "VEC3"
    },
    {
      "bufferView": 0,
      "byteOffset": 16597296,
      "componentType": 5125,
      "count": 175362,
      "type": "SCALAR"
    },
    {
      "bufferView": 1,
      "byteOffset": 37746528,
      "componentType": 5126,
      "count": 65533,
      "max": [
        0.11093129217624664,
        -0.10715904831886292,
        0.33342692255973816
      ],
      "min": [
        -0.1057811826467514,
        -0.15715906023979187,
        -0.2932867407798767
      ],
      "type": "VEC3"
    },
    {
      "bufferView": 1,
      "byteOffset": 38532924,
      "componentType": 5126,
      "count": 65533,
      "max": [
        1.0,
        1.0,
        1.0
      ],
      "min": [
        -1.0,
        -1.0,
        -1.0
      ],
      "type": "VEC3"
    },
    {
      "bufferView": 0,
      "byteOffset": 17298744,
      "componentType": 5125,
      "count": 171990,
      "type": "SCALAR"
    },
    {
      "bufferView": 1,
      "byteOffset": 39319320,
      "componentType": 5126,
      "count": 65532,
      "max": [
        0.11013979464769363,
        -0.09253402799367905,
        0.3350103497505188
      ],
      "min": [
        -0.11195487529039383,
        -0.13965904712677002,
        -0.2848947048187256
      ],
      "type": "VEC3"
    },
    {
      "bufferView": 1,
      "byteOffset": 40105704,
      "componentType": 5126,
      "count": 65532,
      "max": [
        1.0,
        1.0,
        1.0
      ],
      "min": [
        -1.0,
        -1.0,
        -1.0
      ],
      "type": "VEC3"
    },
    {
      "bufferView": 0,
      "byteOffset": 17986704,
      "componentType": 5125,
      "count": 168990,
      "type": "SCALAR"
    },
    {
      "bufferView": 1,
      "byteOffset": 40892088,
      "componentType": 5126,
      "count": 65532,
      "max": [
        0.10539080947637558,
        0.28334102034568787,
        0.3337436020374298
      ],
      "min": [
        -0.11480427533388138,
        -0.11365906149148941,
        -0.30342060327529907
      ],
      "type": "VEC3"
    },
    {
      "bufferView": 1,
      "byteOffset": 41678472,
      "componentType": 5126,
      "count": 65532,
      "max": [
        1.0,
        1.0,
        1.0
      ],
      "min": [
        -1.0,
        -1.0,
        -1.0
      ],
      "type": "VEC3"
    },
    {
      "bufferView": 0,
      "byteOffset": 18662664,
      "componentType": 5125,
      "count": 159402,
      "type": "SCALAR"
    },
    {
      "bufferView": 1,
      "byteOffset": 42464856,
      "componentType": 5126,
      "count": 65532,
      "max": [
        0.03241460770368576,
        0.336340993642807,
        0.008669544942677021
      ],
      "min": [
        -0.04768509045243263,
        0.2338409572839737,
        -0.3024309277534485
      ],
      "type": "VEC3"
    },
    {
      "bufferView": 1,
      "byteOffset": 43251240,
      "componentType": 5126,
      "count": 65532,
      "max": [
        1.0,
        1.0,
        1.0
      ],
      "min": [
        -1.0,
        -1.0,
        -1.0
      ],
      "type": "VEC3"
    },
    {
      "bufferView": 0,
      "byteOffset": 19300272,
      "componentType": 5125,
      "count": 172380,
      "type": "SCALAR"
    },
    {
      "bufferView": 1,
      "byteOffset": 44037624,
      "componentType": 5126,
      "count": 65532,
      "max": [
        0.02092183381319046,
        0.38284096121788025,
        -0.02363206446170807
      ],
      "min": [
        -0.020457524806261063,
        -0.2930600047111511,
        -0.3120298385620117
      ],
      "type": "VEC3"
    },
    {
      "bufferView": 1,
      "byteOffset": 44824008,
      "componentType": 5126,
      "count": 65532,
      "max": [
        1.0,
        1.0,
        1.0
      ],
      "min": [
        -1.0,
        -1.0,
        -1.0
      ],
      "type": "VEC3"
    },
    {
      "bufferView": 0,
      "byteOffset": 19989792,
      "componentType": 5125,
      "count": 188385,
      "type": "SCALAR"
    },
    {
      "bufferView": 1,
      "byteOffset": 45610392,
      "componentType": 5126,
      "count": 65533,
      "max": [
        0.017867259681224823,
        0.3752959668636322,
        -0.18002985417842865
      ],
      "min": [
        -0.017121572047472,
        -0.3470059335231781,
        -0.2950298488140106
      ],
      "type": "VEC3"
    },
    {
      "bufferView": 1,
      "byteOffset": 46396788,
      "componentType": 5126,
      "count": 65533,
      "max": [
        1.0,
        1.0,
        1.0
      ],
      "min": [
        -1.0,
        -1.0,
        -1.0
      ],
      "type": "VEC3"
    },
    {
      "bufferView": 0,
      "byteOffset": 20743332,
      "componentType": 5125,
      "count": 185691,
      "type": "SCALAR"
    },
    {
      "bufferView": 1,
      "byteOffset": 47183184,
      "componentType": 5126,
      "count": 65532,
      "max": [
        0.016756504774093628,
        0.3776554763317108,
        -0.15702985227108002
      ],
      "min": [
        -0.03257960081100464,
        -0.3666226267814636,
        -0.2575298249721527
      ],
      "type": "VEC3"
    },
    {
      "bufferView": 1,
      "byteOffset": 47969568,
      "componentType": 5126,
      "count": 65532,
      "max": [
        1.0,
        1.0,
        1.0
      ],
      "min": [
        -1.0,
        -1.0,
        -1.0
      ],
      "type": "VEC3"
    },
    {
      "bufferView": 0,
      "byteOffset": 21486096,
      "componentType": 5125,
      "count": 186567,
      "type": "SCALAR"
    },
    {
      "bufferView": 1,
      "byteOffset": 48755952,
      "componentType": 5126,
      "count": 65532,
      "max": [
        0.03230709210038185,
        0.38158807158470154,
        -0.0870298445224762
      ],
      "min": [
        -0.08117517828941345,
        -0.3716193437576294,
        -0.21552984416484833
      ],
      "type": "VEC3"
    },
    {
      "bufferView": 1,
      "byteOffset": 49542336,
      "componentType": 5126,
      "count": 65532,
      "max": [
        1.0,
        1.0,
        1.0
      ],
      "min": [
        -1.0,
        -1.0,
        -1.0
      ],
      "type": "VEC3"
    },
    {
      "bufferView": 0,
      "byteOffset": 22232364,
      "componentType": 5125,
      "count": 186429,
      "type": "SCALAR"
    },
    {
      "bufferView": 1,
      "byteOffset": 50328720,
      "componentType": 5126,
      "count": 65532,
      "max": [
        0.06544464826583862,
        0.3823283612728119,
        -0.0505298487842083
      ],
      "min": [
        -0.08117517828941345,
        -0.3756907284259796,
        -0.19452984631061554
      ],
      "type": "VEC3"
    },
    {
      "bufferView": 1,
      "byteOffset": 51115104,
      "componentType": 5126,
      "count": 65532,
      "max": [
        1.0,
        1.0,
        1.0
      ],
      "min": [
        -1.0,
        -1.0,
        -1.0
      ],
      "type": "VEC3"
    },
    {
      "bufferView": 0,
      "byteOffset": 22978080,
      "componentType": 5125,
      "count": 184677,
      "type": "SCALAR"
    },
    {
      "bufferView": 1,
      "byteOffset": 51901488,
      "componentType": 5126,
      "count": 65532,
      "max": [
        0.07729271054267883,
        0.38047775626182556,
        -0.10202984511852264
      ],
      "min": [
        -0.07960158586502075,
        -0.3733774423599243,
        -0.18102984130382538
      ],
      "type": "VEC3"
    },
    {
      "bufferView": 1,
      "byteOffset": 52687872,
      "componentType": 5126,
      "count": 65532,
      "max": [
        1.0,
        1.0,
        1.0
      ],
      "min": [
        -1.0,
        -1.0,
        -1.0
      ],
      "type": "VEC3"
    },
    {
      "bufferView": 0,
      "byteOffset": 23716788,
      "componentType": 5125,
      "count": 181392,
      "type": "SCALAR"
    },
    {
      "bufferView": 1,
      "byteOffset": 53474256,
      "componentType": 5126,
      "count": 65532,
      "max": [
        0.07840347290039063,
        0.3823283612728119,
        -0.11252985149621964
      ],
      "min": [
        -0.07062298059463501,
        -0.3740251660346985,
        -0.17102985084056854
      ],
      "type": "VEC3"
    },
    {
      "bufferView": 1,
      "byteOffset": 54260640,
      "componentType": 5126,
      "count": 65532,
      "max": [
        1.0,
        1.0,
        1.0
      ],
      "min": [
        -1.0,
        -1.0,
        -1.0
      ],
      "type": "VEC3"
    },
    {
      "bufferView": 0,
      "byteOffset": 24442356,
      "componentType": 5125,
      "count": 179850,
      "type": "SCALAR"
    },
    {
      "bufferView": 1,
      "byteOffset": 55047024,
      "componentType": 5126,
      "count": 65533,
      "max": [
        0.07840347290039063,
        0.3819582164287567,
        -0.0845298320055008
      ],
      "min": [
        -0.06877171993255615,
        -0.3755056858062744,
        -0.16402985155582428
      ],
      "type": "VEC3"
    },
    {
      "bufferView": 1,
      "byteOffset": 55833420,
      "componentType": 5126,
      "count": 65533,
      "max": [
        1.0,
        1.0,
        1.0
      ],
      "min": [
        -1.0,
        -1.0,
        -1.0
      ],
      "type": "VEC3"
    },
    {
      "bufferView": 0,
      "byteOffset": 25161756,
      "componentType": 5125,
      "count": 178518,
      "type": "SCALAR"
    },
    {
      "bufferView": 1,
      "byteOffset": 56619816,
      "componentType": 5126,
      "count": 65532,
      "max": [
        0.07840347290039063,
        0.3823283612728119,
        -0.07102984189987183
      ],
      "min": [
        -0.06655022501945496,
        -0.37495049834251404,
        -0.15402984619140625
      ],
      "type": "VEC3"
    },
    {
      "bufferView": 1,
      "byteOffset": 57406200,
      "componentType": 5126,
      "count": 65532,
      "max": [
        1.0,
        1.0,
        1.0
      ],
      "min": [
        -1.0,
        -1.0,
        -1.0
      ],
      "type": "VEC3"
    },
    {
      "bufferView": 0,
      "byteOffset": 25875828,
      "componentType": 5125,
      "count": 184164,
      "type": "SCALAR"
    },
    {
      "bufferView": 1,
      "byteOffset": 58192584,
      "componentType": 5126,
      "count": 65532,
      "max": [
        0.07414557784795761,
        0.38158807158470154,
        -0.04502982646226883
      ],
      "min": [
        -0.06747584044933319,
        -0.3742102384567261,
        -0.14402984082698822
      ],
      "type": "VEC3"
    },
    {
      "bufferView": 1,
      "byteOffset": 58978968,
      "componentType": 5126,
      "count": 65532,
      "max": [
        1.0,
        1.0,
        1.0
      ],
      "min": [
        -1.0,
        -1.0,
        -1.0
      ],
      "type": "VEC3"
    },
    {
      "bufferView": 0,
      "byteOffset": 26612484,
      "componentType": 5125,
      "count": 175221,
      "type": "SCALAR"
    },
    {
      "bufferView": 1,
      "byteOffset": 59765352,
      "componentType": 5126,
      "count": 65532,
      "max": [
        0.07007280737161636,
        0.3807552754878998,
        -0.03352982923388481
      ],
      "min": [
        -0.06331049650907516,
        -0.37300732731819153,
        -0.12802983820438385
      ],
      "type": "VEC3"
    },
    {
      "bufferView": 1,
      "byteOffset": 60551736,
      "componentType": 5126,
      "count": 65532,
      "max": [
        1.0,
        1.0,
        1.0
      ],
      "min": [
        -1.0,
        -1.0,
        -1.0
      ],
      "type": "VEC3"
    },
    {
      "bufferView": 0,
      "byteOffset": 27313368,
      "componentType": 5125,
      "count": 182997,
      "type": "SCALAR"
    },
    {
      "bufferView": 1,
      "byteOffset": 61338120,
      "componentType": 5126,
      "count": 65532,
      "max": [
        0.06701821833848953,
        0.3785345256328583,
        -0.039529841393232346
      ],
      "min": [
        -0.06747584789991379,
        -0.3695836365222931,
        -0.11152984201908112
      ],
      "type": "VEC3"
    },
    {
      "bufferView": 1,
      "byteOffset": 62124504,
      "componentType": 5126,
      "count": 65532,
      "max": [
        1.0,
        1.0,
        1.0
      ],
      "min": [
        -1.0,
        -1.0,
        -1.0
      ],
      "type": "VEC3"
    },
    {
      "bufferView": 0,
      "byteOffset": 28045356,
      "componentType": 5125,
      "count": 185334,
      "type": "SCALAR"
    },
    {
      "bufferView": 1,
      "byteOffset": 62910888,
      "componentType": 5126,
      "count": 65532,
      "max": [
        0.07062818855047226,
        0.37233492732048035,
        -0.02552984282374382
      ],
      "min": [
        -0.06617995351552963,
        -0.3626437783241272,
        -0.09302984178066254
      ],
      "type": "VEC3"
    },
    {
      "bufferView": 1,
      "byteOffset": 63697272,
      "componentType": 5126,
      "count": 65532,
      "max": [
        1.0,
        1.0,
        1.0
      ],
      "min": [
        -1.0,
        -1.0,
        -1.0
      ],
      "type": "VEC3"
    },
    {
      "bufferView": 0,
      "byteOffset": 28786692,
      "componentType": 5125,
      "count": 179517,
      "type": "SCALAR"
    },
    {
      "bufferView": 1,
      "byteOffset": 64483656,
      "componentType": 5126,
      "count": 65532,
      "max": [
        0.07507123053073883,
        0.36363694071769714,
        -0.014529834501445293
      ],
      "min": [
        -0.07043783366680145,
        -0.3532980978488922,
        -0.07202984392642975
      ],
      "type": "VEC3"
    },
    {
      "bufferView": 1,
      "byteOffset": 65270040,
      "componentType": 5126,
      "count": 65532,
      "max": [
        1.0,
        1.0,
        1.0
      ],
      "min": [
        -1.0,
        -1.0,
        -1.0
      ],
      "type": "VEC3"
    },
    {
      "bufferView": 0,
      "byteOffset": 29504760,
      "componentType": 5125,
      "count": 181833,
      "type": "SCALAR"
    },
    {
      "bufferView": 1,
      "byteOffset": 66056424,
      "componentType": 5126,
      "count": 65532,
      "max": [
        0.07729272544384003,
        0.3540136516094208,
        -0.013029824942350388
      ],
      "min": [
        -0.07006759941577911,
        -0.33941832184791565,
        -0.05502985045313835
      ],
      "type": "VEC3"
    },
    {
      "bufferView": 1,
      "byteOffset": 66842808,
      "componentType": 5126,
      "count": 65532,
      "max": [
        1.0,
        1.0,
        1.0
      ],
      "min": [
        -1.0,
        -1.0,
        -1.0
      ],
      "type": "VEC3"
    },
    {
      "bufferView": 0,
      "byteOffset": 30232092,
      "componentType": 5125,
      "count": 176007,
      "type": "SCALAR"
    },
    {
      "bufferView": 1,
      "byteOffset": 67629192,
      "componentType": 5126,
      "count": 65532,
      "max": [
        0.07729272544384003,
        0.34513065218925476,
        -0.008029831573367119
      ],
      "min": [
        -0.07043783366680145,
        -0.3229477107524872,
        -0.03602983057498932
      ],
      "type": "VEC3"
    },
    {
      "bufferView": 1,
      "byteOffset": 68415576,
      "componentType": 5126,
      "count": 65532,
      "max": [
        1.0,
        1.0,
        1.0
      ],
      "min": [
        -1.0,
        -1.0,
        -1.0
      ],
      "type": "VEC3"
    },
    {
      "bufferView": 0,
      "byteOffset": 30936120,
      "componentType": 5125,
      "count": 166209,
      "type": "SCALAR"
    },
    {
      "bufferView": 1,
      "byteOffset": 69201960,
      "componentType": 5126,
      "count": 9050,
      "max": [
        0.07673735916614532,
        0.3100610673427582,
        -0.0065298196859657764
      ],
      "min": [
        -0.06803120672702789,
        -0.29296746850013733,
        -0.015529823489487171
      ],
      "type": "VEC3"
    },
    {
      "bufferView": 1,
      "byteOffset": 69310560,
      "componentType": 5126,
      "count": 9050,
      "max": [
        1.0,
        1.0,
        1.0
      ],
      "min": [
        -1.0,
        -1.0,
        -1.0
      ],
      "type": "VEC3"
    },
    {
      "bufferView": 0,
      "byteOffset": 31600956,
      "componentType": 5125,
      "count": 18822,
      "type": "SCALAR"
    }
  ],
  "asset": {
    "extras": {
      "author": "firebird854 (https://sketchfab.com/firebird854)",
      "license": "CC-BY-4.0 (http://creativecommons.org/licenses/by/4.0/)",
      "source": "https://sketchfab.com/3d-models/cyclist-on-bike-79f8953e092745c3a70130474a811b4f",
      "title": "Cyclist on bike"
    },
    "generator": "Sketchfab-16.59.0",
    "version": "2.0"
  },
  "bufferViews": [
    {
      "buffer": 0,
      "byteLength": 31676244,
      "name": "floatBufferViews",
      "target": 34963
    },
    {
      "buffer": 0,
      "byteLength": 69419160,
      "byteOffset": 31676244,
      "byteStride": 12,
      "name": "floatBufferViews",
      "target": 34962
    }
  ],
  "buffers": [
    {
      "byteLength": 101095404,
      "uri": "scene.bin"
    }
  ],
  "materials": [
    {
      "doubleSided": true,
      "name": "Scene_-_Root",
      "pbrMetallicRoughness": {
        "metallicFactor": 0.0
      }
    }
  ],
  "meshes": [
    {
      "name": "Object_0",
      "primitives": [
        {
          "attributes": {
            "NORMAL": 1,
            "POSITION": 0
          },
          "indices": 2,
          "material": 0,
          "mode": 4
        }
      ]
    },
    {
      "name": "Object_1",
      "primitives": [
        {
          "attributes": {
            "NORMAL": 4,
            "POSITION": 3
          },
          "indices": 5,
          "material": 0,
          "mode": 4
        }
      ]
    },
    {
      "name": "Object_2",
      "primitives": [
        {
          "attributes": {
            "NORMAL": 7,
            "POSITION": 6
          },
          "indices": 8,
          "material": 0,
          "mode": 4
        }
      ]
    },
    {
      "name": "Object_3",
      "primitives": [
        {
          "attributes": {
            "NORMAL": 10,
            "POSITION": 9
          },
          "indices": 11,
          "material": 0,
          "mode": 4
        }
      ]
    },
    {
      "name": "Object_4",
      "primitives": [
        {
          "attributes": {
            "NORMAL": 13,
            "POSITION": 12
          },
          "indices": 14,
          "material": 0,
          "mode": 4
        }
      ]
    },
    {
      "name": "Object_5",
      "primitives": [
        {
          "attributes": {
            "NORMAL": 16,
            "POSITION": 15
          },
          "indices": 17,
          "material": 0,
          "mode": 4
        }
      ]
    },
    {
      "name": "Object_6",
      "primitives": [
        {
          "attributes": {
            "NORMAL": 19,
            "POSITION": 18
          },
          "indices": 20,
          "material": 0,
          "mode": 4
        }
      ]
    },
    {
      "name": "Object_7",
      "primitives": [
        {
          "attributes": {
            "NORMAL": 22,
            "POSITION": 21
          },
          "indices": 23,
          "material": 0,
          "mode": 4
        }
      ]
    },
    {
      "name": "Object_8",
      "primitives": [
        {
          "attributes": {
            "NORMAL": 25,
            "POSITION": 24
          },
          "indices": 26,
          "material": 0,
          "mode": 4
        }
      ]
    },
    {
      "name": "Object_9",
      "primitives": [
        {
          "attributes": {
            "NORMAL": 28,
            "POSITION": 27
          },
          "indices": 29,
          "material": 0,
          "mode": 4
        }
      ]
    },
    {
      "name": "Object_10",
      "primitives": [
        {
          "attributes": {
            "NORMAL": 31,
            "POSITION": 30
          },
          "indices": 32,
          "material": 0,
          "mode": 4
        }
      ]
    },
    {
      "name": "Object_11",
      "primitives": [
        {
          "attributes": {
            "NORMAL": 34,
            "POSITION": 33
          },
          "indices": 35,
          "material": 0,
          "mode": 4
        }
      ]
    },
    {
      "name": "Object_12",
      "primitives": [
        {
          "attributes": {
            "NORMAL": 37,
            "POSITION": 36
          },
          "indices": 38,
          "material": 0,
          "mode": 4
        }
      ]
    },
    {
      "name": "Object_13",
      "primitives": [
        {
          "attributes": {
            "NORMAL": 40,
            "POSITION": 39
          },
          "indices": 41,
          "material": 0,
          "mode": 4
        }
      ]
    },
    {
      "name": "Object_14",
      "primitives": [
        {
          "attributes": {
            "NORMAL": 43,
            "POSITION": 42
          },
          "indices": 44,
          "material": 0,
          "mode": 4
        }
      ]
    },
    {
      "name": "Object_15",
      "primitives": [
        {
          "attributes": {
            "NORMAL": 46,
            "POSITION": 45
          },
          "indices": 47,
          "material": 0,
          "mode": 4
        }
      ]
    },
    {
      "name": "Object_16",
      "primitives": [
        {
          "attributes": {
            "NORMAL": 49,
            "POSITION": 48
          },
          "indices": 50,
          "material": 0,
          "mode": 4
        }
      ]
    },
    {
      "name": "Object_17",
      "primitives": [
        {
          "attributes": {
            "NORMAL": 52,
            "POSITION": 51
          },
          "indices": 53,
          "material": 0,
          "mode": 4
        }
      ]
    },
    {
      "name": "Object_18",
      "primitives": [
        {
          "attributes": {
            "NORMAL": 55,
            "POSITION": 54
          },
          "indices": 56,
          "material": 0,
          "mode": 4
        }
      ]
    },
    {
      "name": "Object_19",
      "primitives": [
        {
          "attributes": {
            "NORMAL": 58,
            "POSITION": 57
          },
          "indices": 59,
          "material": 0,
          "mode": 4
        }
      ]
    },
    {
      "name": "Object_20",
      "primitives": [
        {
          "attributes": {
            "NORMAL": 61,
            "POSITION": 60
          },
          "indices": 62,
          "material": 0,
          "mode": 4
        }
      ]
    },
    {
      "name": "Object_21",
      "primitives": [
        {
          "attributes": {
            "NORMAL": 64,
            "POSITION": 63
          },
          "indices": 65,
          "material": 0,
          "mode": 4
        }
      ]
    },
    {
      "name": "Object_22",
      "primitives": [
        {
          "attributes": {
            "NORMAL": 67,
            "POSITION": 66
          },
          "indices": 68,
          "material": 0,
          "mode": 4
        }
      ]
    },
    {
      "name": "Object_23",
      "primitives": [
        {
          "attributes": {
            "NORMAL": 70,
            "POSITION": 69
          },
          "indices": 71,
          "material": 0,
          "mode": 4
        }
      ]
    },
    {
      "name": "Object_24",
      "primitives": [
        {
          "attributes": {
            "NORMAL": 73,
            "POSITION": 72
          },
          "indices": 74,
          "material": 0,
          "mode": 4
        }
      ]
    },
    {
      "name": "Object_25",
      "primitives": [
        {
          "attributes": {
            "NORMAL": 76,
            "POSITION": 75
          },
          "indices": 77,
          "material": 0,
          "mode": 4
        }
      ]
    },
    {
      "name": "Object_26",
      "primitives": [
        {
          "attributes": {
            "NORMAL": 79,
            "POSITION": 78
          },
          "indices": 80,
          "material": 0,
          "mode": 4
        }
      ]
    },
    {
      "name": "Object_27",
      "primitives": [
        {
          "attributes": {
            "NORMAL": 82,
            "POSITION": 81
          },
          "indices": 83,
          "material": 0,
          "mode": 4
        }
      ]
    },
    {
      "name": "Object_28",
      "primitives": [
        {
          "attributes": {
            "NORMAL": 85,
            "POSITION": 84
          },
          "indices": 86,
          "material": 0,
          "mode": 4
        }
      ]
    },
    {
      "name": "Object_29",
      "primitives": [
        {
          "attributes": {
            "NORMAL": 88,
            "POSITION": 87
          },
          "indices": 89,
          "material": 0,
          "mode": 4
        }
      ]
    },
    {
      "name": "Object_30",
      "primitives": [
        {
          "attributes": {
            "NORMAL": 91,
            "POSITION": 90
          },
          "indices": 92,
          "material": 0,
          "mode": 4
        }
      ]
    },
    {
      "name": "Object_31",
      "primitives": [
        {
          "attributes": {
            "NORMAL": 94,
            "POSITION": 93
          },
          "indices": 95,
          "material": 0,
          "mode": 4
        }
      ]
    },
    {
      "name": "Object_32",
      "primitives": [
        {
          "attributes": {
            "NORMAL": 97,
            "POSITION": 96
          },
          "indices": 98,
          "material": 0,
          "mode": 4
        }
      ]
    },
    {
      "name": "Object_33",
      "primitives": [
        {
          "attributes": {
            "NORMAL": 100,
            "POSITION": 99
          },
          "indices": 101,
          "material": 0,
          "mode": 4
        }
      ]
    },
    {
      "name": "Object_34",
      "primitives": [
        {
          "attributes": {
            "NORMAL": 103,
            "POSITION": 102
          },
          "indices": 104,
          "material": 0,
          "mode": 4
        }
      ]
    },
    {
      "name": "Object_35",
      "primitives": [
        {
          "attributes": {
            "NORMAL": 106,
            "POSITION": 105
          },
          "indices": 107,
          "material": 0,
          "mode": 4
        }
      ]
    },
    {
      "name": "Object_36",
      "primitives": [
        {
          "attributes": {
            "NORMAL": 109,
            "POSITION": 108
          },
          "indices": 110,
          "material": 0,
          "mode": 4
        }
      ]
    },
    {
      "name": "Object_37",
      "primitives": [
        {
          "attributes": {
            "NORMAL": 112,
            "POSITION": 111
          },
          "indices": 113,
          "material": 0,
          "mode": 4
        }
      ]
    },
    {
      "name": "Object_38",
      "primitives": [
        {
          "attributes": {
            "NORMAL": 115,
            "POSITION": 114
          },
          "indices": 116,
          "material": 0,
          "mode": 4
        }
      ]
    },
    {
      "name": "Object_39",
      "primitives": [
        {
          "attributes": {
            "NORMAL": 118,
            "POSITION": 117
          },
          "indices": 119,
          "material": 0,
          "mode": 4
        }
      ]
    },
    {
      "name": "Object_40",
      "primitives": [
        {
          "attributes": {
            "NORMAL": 121,
            "POSITION": 120
          },
          "indices": 122,
          "material": 0,
          "mode": 4
        }
      ]
    },
    {
      "name": "Object_41",
      "primitives": [
        {
          "attributes": {
            "NORMAL": 124,
            "POSITION": 123
          },
          "indices": 125,
          "material": 0,
          "mode": 4
        }
      ]
    },
    {
      "name": "Object_42",
      "primitives": [
        {
          "attributes": {
            "NORMAL": 127,
            "POSITION": 126
          },
          "indices": 128,
          "material": 0,
          "mode": 4
        }
      ]
    },
    {
      "name": "Object_43",
      "primitives": [
        {
          "attributes": {
            "NORMAL": 130,
            "POSITION": 129
          },
          "indices": 131,
          "material": 0,
          "mode": 4
        }
      ]
    },
    {
      "name": "Object_44",
      "primitives": [
        {
          "attributes": {
            "NORMAL": 133,
            "POSITION": 132
          },
          "indices": 134,
          "material": 0,
          "mode": 4
        }
      ]
    }
  ],
  "nodes": [
    {
      "children": [
        1
      ],
      "matrix": [
        1.0,
        0.0,
        0.0,
        0.0,
        0.0,
        2.220446049250313e-16,
        -1.0,
        0.0,
        0.0,
        1.0,
        2.220446049250313e-16,
        0.0,
        0.0,
        0.0,
        0.0,
        1.0
      ],
      "name": "Sketchfab_model"
    },
    {
      "children": [
        2,
        3,
        4,
        5,
        6,
        7,
        8,
        9,
        10,
        11,
        12,
        13,
        14,
        15,
        16,
        17,
        18,
        19,
        20,
        21,
        22,
        23,
        24,
        25,
        26,
        27,
        28,
        29,
        30,
        31,
        32,
        33,
        34,
        35,
        36,
        37,
        38,
        39,
        40,
        41,
        42,
        43,
        44,
        45,
        46
      ],
      "name": "Geode"
    },
    {
      "mesh": 0,
      "name": "Object_2"
    },
    {
      "mesh": 1,
      "name": "Object_3"
    },
    {
      "mesh": 2,
      "name": "Object_4"
    },
    {
      "mesh": 3,
      "name": "Object_5"
    },
    {
      "mesh": 4,
      "name": "Object_6"
    },
    {
      "mesh": 5,
      "name": "Object_7"
    },
    {
      "mesh": 6,
      "name": "Object_8"
    },
    {
      "mesh": 7,
      "name": "Object_9"
    },
    {
      "mesh": 8,
      "name": "Object_10"
    },
    {
      "mesh": 9,
      "name": "Object_11"
    },
    {
      "mesh": 10,
      "name": "Object_12"
    },
    {
      "mesh": 11,
      "name": "Object_13"
    },
    {
      "mesh": 12,
      "name": "Object_14"
    },
    {
      "mesh": 13,
      "name": "Object_15"
    },
    {
      "mesh": 14,
      "name": "Object_16"
    },
    {
      "mesh": 15,
      "name": "Object_17"
    },
    {
      "mesh": 16,
      "name": "Object_18"
    },
    {
      "mesh": 17,
      "name": "Object_19"
    },
    {
      "mesh": 18,
      "name": "Object_20"
    },
    {
      "mesh": 19,
      "name": "Object_21"
    },
    {
      "mesh": 20,
      "name": "Object_22"
    },
    {
      "mesh": 21,
      "name": "Object_23"
    },
    {
      "mesh": 22,
      "name": "Object_24"
    },
    {
      "mesh": 23,
      "name": "Object_25"
    },
    {
      "mesh": 24,
      "name": "Object_26"
    },
    {
      "mesh": 25,
      "name": "Object_27"
    },
    {
      "mesh": 26,
      "name": "Object_28"
    },
    {
      "mesh": 27,
      "name": "Object_29"
    },
    {
      "mesh": 28,
      "name": "Object_30"
    },
    {
      "mesh": 29,
      "name": "Object_31"
    },
    {
      "mesh": 30,
      "name": "Object_32"
    },
    {
      "mesh": 31,
      "name": "Object_33"
    },
    {
      "mesh": 32,
      "name": "Object_34"
    },
    {
      "mesh": 33,
      "name": "Object_35"
    },
    {
      "mesh": 34,
      "name": "Object_36"
    },
    {
      "mesh": 35,
      "name": "Object_37"
    },
    {
      "mesh": 36,
      "name": "Object_38"
    },
    {
      "mesh": 37,
      "name": "Object_39"
    },
    {
      "mesh": 38,
      "name": "Object_40"
    },
    {
      "mesh": 39,
      "name": "Object_41"
    },
    {
      "mesh": 40,
      "name": "Object_42"
    },
    {
      "mesh": 41,
      "name": "Object_43"
    },
    {
      "mesh": 42,
      "name": "Object_44"
    },
    {
      "mesh": 43,
      "name": "Object_45"
    },
    {
      "mesh": 44,
      "name": "Object_46"
    }
  ],
  "scene": 0,
  "scenes": [
    {
      "name": "Sketchfab_Scene",
      "nodes": [
        0
      ]
    }
  ]
}
